<?xml version="1.0" encoding="UTF-8"?>
<svg id="Camada_2" data-name="Camada 2" xmlns="http://www.w3.org/2000/svg" viewBox="0 0 20.54 20.54">
  <defs>
    <style>
      .cls-1 {
        fill: #fff;
        stroke-width: 0px;
      }
    </style>
  </defs>
  <g id="Camada_1-2" data-name="Camada 1">
    <path class="cls-1" d="m16.63,0H3.91C1.75,0,0,1.75,0,3.91v16.63h20.54V3.91c0-2.16-1.75-3.91-3.91-3.91Zm2.91,15.16c-.65-1.32-1.57-2.48-2.69-3.41-.09.71-.7,1.26-1.43,1.26-.8,0-1.45-.65-1.45-1.45,0-.51.26-.96.65-1.22-1.33-.62-2.81-.97-4.38-.97-4.03,0-7.53,2.3-9.24,5.66V3.91c0-1.6,1.31-2.91,2.91-2.91h12.72c1.6,0,2.91,1.31,2.91,2.91v11.25Z"/>
  </g>
</svg>